# AST/ASF file generated using VICON BodyLanguage
# -----------------------------------------------
:version 1.10
:name VICON
:units
  mass 1.0
  length 0.45
  angle deg
:documentation
   .ast/.asf automatically generated from VICON data using
   VICON BodyBuilder and BodyLanguage model FoxedUp or BRILLIANT.MOD
:root
   order TX TY TZ RX RY RZ
   axis XYZ
   position 0 0 0  
   orientation 0 0 0 
:bonedata
  begin
     id 1 
     name lhipjoint
     direction 0.677091 -0.635792 0.370561 
     length 2.74323 
     axis 0 0 0  XYZ
  end
  begin
     id 2 
     name lfemur
     direction 0.34202 -0.939693 0  
     length 7.44995  
     axis 0 0 20  XYZ
    dof rx ry rz
    limits (-160.0 20.0)
           (-70.0 70.0)
           (-60.0 70.0)
  end
  begin
     id 3 
     name ltibia
     direction 0.34202 -0.939693 0   
     length 7.34467   
     axis 0 0 20   XYZ
    dof rx
    limits (-10.0 170.0)
  end
  begin
     id 4 
     name lfoot
     direction 0.101953 -0.280114 0.954537   
     length 1.72105   
     axis -90 7.62852e-016 20   XYZ
    dof rx rz
    limits (-45.0 90.0)
           (-70.0 20.0)
  end
  begin
     id 5 
     name ltoes
     direction 1.53537e-011 -4.21915e-011 1   
     length 0.865872   
     axis -90 7.62852e-016 20   XYZ
    dof rx
    limits (-90.0 20.0)
  end
  begin
     id 6 
     name rhipjoint
     direction -0.695735 -0.620586 0.361699   
     length 2.81045  
     axis 0 0 0  XYZ 
  end
  begin
     id 7 
     name rfemur
     direction -0.34202 -0.939693 0   
     length 7.29387   
     axis 0 0 -20   XYZ
    dof rx ry rz
    limits (-160.0 20.0)
           (-70.0 70.0)
           (-70.0 60.0)
  end
  begin
     id 8 
     name rtibia
     direction -0.34202 -0.939693 0   
     length 7.44935   
     axis 0 0 -20   XYZ
    dof rx
    limits (-10.0 170.0)
 end
 begin
     id 9 
     name rfoot
     direction -0.104163 -0.286184 0.952496   
     length 1.77731  
     axis -90 -7.62852e-016 -20   XYZ
    dof rx rz
    limits (-45.0 90.0)
           (-20.0 70.0)
  end
  begin
     id 10 
     name rtoes
     direction -1.5355e-011 -4.21888e-011 1   
     length 0.892424   
     axis -90 -7.62852e-016 -20   XYZ
    dof rx
    limits (-90.0 20.0)
  end
  begin
     id 11 
     name lowerback
     direction 0.0100202 0.997226 -0.0737589   
     length 2.16892   
     axis 0 0 0   XYZ
    dof rx ry rz
    limits (-20.0 45.0)
           (-30.0 30.0)
           (-30.0 30.0)
  end
  begin
     id 12 
     name upperback
     direction 0.00432398 0.999988 -0.00215019   
     length 2.17326   
     axis 0 0 0   XYZ
    dof rx ry rz
    limits (-20.0 45.0)
           (-30.0 30.0)
           (-30.0 30.0)
  end
  begin
     id 13 
     name thorax
     direction -0.00195047 0.999485 0.0320434   
     length 2.18139   
     axis 0 0 0   XYZ
    dof rx ry rz
    limits (-20.0 45.0)
           (-30.0 30.0)
           (-30.0 30.0)
  end
  begin
     id 14 
     name lowerneck
     direction 0.00782762 0.986241 0.165128   
     length 1.88415   
     axis 0 0 0   XYZ
    dof rx ry rz
    limits (-20.0 45.0)
           (-30.0 30.0)
           (-30.0 30.0)
  end
  begin
     id 15 
     name upperneck
     direction 0.00988667 0.981098 -0.193258   
     length 1.9242   
     axis 0 0 0   XYZ
    dof rx ry rz
    limits (-20.0 45.0)
           (-30.0 30.0)
           (-30.0 30.0)
  end
  begin
     id 16
     name head
     direction 0.00252199 0.996513 -0.0833958  
     length 1.93887  
     axis 0 0 0   XYZ
    dof rx ry rz
    limits (-20.0 45.0)
           (-30.0 30.0)
           (-30.0 30.0)
  end
  begin
     id 17 
     name lclavicle
     direction 0.929492 0.368193 -0.0218667  
     length 3.5955  
     axis 0 0 0   XYZ
    dof ry rz
    limits (-20.0 10.0)
           (0.0 20.0)
  end
  begin
     id 18 
     name lhumerus
     direction 1 -4.48972e-011 1.41911e-027   
     length 5.2795   
     axis 180 -30 -90   XYZ
    dof rx ry rz
    limits (-60.0 90.0)
           (-90.0 90.0)
           (-90.0 90.0)
  end
  begin
     id 19
     name lradius
     direction 1 -4.48963e-011 7.05772e-027   
     length 3.53504   
     axis 180 -30 -90   XYZ
    dof rx
    limits (-10.0 170.0)
  end
  begin
     id 20
     name lwrist
     direction 1 -4.48957e-011 9.54866e-027   
     length 1.76752   
     axis -7.69462e-015 90 90   XYZ
    dof ry
    limits (-180.0 0.0)
 end
  begin
     id 21 
     name lhand
     direction 1 -4.48979e-011 1.90973e-026   
     length 0.667948   
     axis -1.21857e-014 90 90   XYZ
    dof rx rz
    limits (-90.0 90.0)
           (-45.0 45.0)
  end
  begin
     id 22 
     name lfingers
     direction 1 -4.48987e-011 3.81946e-026   
     length 0.538517   
     axis -2.43714e-014 90 90   XYZ
    dof rx
    limits (0.0 90.0)
  end
  begin
     id 23
     name lthumb
     direction 0.707107 -6.34962e-011 0.707107   
     length 0.773206   
     axis -90 45 2.85299e-015   XYZ
    dof rx rz
    limits (-45.0 45.0)
           (-45.0 45.0)
  end
  begin
     id 24 
     name rclavicle
     direction -0.898763 0.414256 -0.143584   
     length 3.5176  
     axis 0 0 0   XYZ 
    dof ry rz
    limits (-10.0 20.0)
           (-20.0 0.0)
  end
  begin
     id 25 
     name rhumerus
     direction -1 -4.48971e-011 1.129e-027  
     length 5.25035   
     axis 180 30 90   XYZ
    dof rx ry rz
    limits (-90.0 60.0)
           (-90.0 90.0)
           (-90.0 90.0)
  end
  begin
     id 26 
     name rradius
     direction -1 -4.48955e-011 6.34664e-027   
     length 3.58884   
     axis 180 30 90   XYZ
    dof rx
    limits (-10.0 170.0)
  end
  begin
     id 27 
     name rwrist
     direction -1 -4.48966e-011 9.54866e-027   
     length 1.79442   
     axis -7.69462e-015 -90 -90   XYZ
    dof ry
    limits (-180.0 0.0)
  end
  begin
     id 28
     name rhand
     direction -1 -4.48973e-011 1.90973e-026   
     length 0.779235   
     axis -1.21857e-014 -90 -90   XYZ
    dof rx rz
    limits (-90.0 90.0)
           (-45.0 45.0)
  end
  begin
     id 29
     name rfingers
     direction -1 -4.48984e-011 3.81946e-026   
     length 0.62824   
     axis -2.43714e-014 -90 -90   XYZ
    dof rx
    limits (0.0 90.0)
  end
  begin
     id 30
     name rthumb
     direction -0.707107 -6.34968e-011 0.707107   
     length 0.90203   
     axis -90 -45 -2.85299e-015   XYZ
    dof rx rz
    limits (-45.0 45.0)
           (-45.0 45.0)
  end
:hierarchy
  begin
    root lhipjoint rhipjoint lowerback
    lhipjoint lfemur
    lfemur ltibia
    ltibia lfoot
    lfoot ltoes
    rhipjoint rfemur
    rfemur rtibia
    rtibia rfoot
    rfoot rtoes
    lowerback upperback
    upperback thorax
    thorax lowerneck lclavicle rclavicle
    lowerneck upperneck
    upperneck head
    lclavicle lhumerus
    lhumerus lradius
    lradius lwrist
    lwrist lhand lthumb
    lhand lfingers
    rclavicle rhumerus
    rhumerus rradius
    rradius rwrist
    rwrist rhand rthumb
    rhand rfingers
  end

#!OML:ASF I:\Random Stuff\random\construction\7_22_03\Session 2\subj1.ASF
:FULLY-SPECIFIED
:DEGREES
497
root -8.49511 17.7769 -5.15962 -144.467 72.941 -158.994
lowerback 8.61581 2.34629 -7.62221
upperback 4.38038 3.16383 -9.44207
thorax -0.0557871 1.86353 -5.91438
lowerneck -18.8322 0.290736 0.865988
upperneck 43.4462 2.62659 1.84105
head 20.2594 2.1176 1.61173
rclavicle 2.8625e-014 7.31528e-014
rhumerus 7.77107 62.9413 -53.1597
rradius 74.4213
rwrist -41.0723
rhand -5.27879 -15.6056
rfingers 7.12502
rthumb 20.5255 -44.5406
lclavicle 2.8625e-014 7.31528e-014
lhumerus 20.7116 -67.7531 73.3176
lradius 29.6972
lwrist 1.69843
lhand -14.5847 44.5172
lfingers 7.12502
lthumb 11.5653 74.1781
rfemur -7.30041 -0.789407 21.0266
rtibia 2.8625e-014
rfoot -4.25571 -16.0938
rtoes -4.91673
lfemur -30.7224 -17.3936 -2.05857
ltibia 26.2103
lfoot -10.869 10.0578
ltoes -40.4088
498
root -8.49794 17.7749 -5.16167 -144.494 72.8087 -159.069
lowerback 8.61122 2.16 -7.87107
upperback 4.54504 2.91128 -9.21401
thorax 0.0846643 1.72311 -5.5002
lowerneck -19.2956 0.500226 0.630892
upperneck 43.4582 3.10486 1.66013
head 20.3996 2.21634 1.6762
rclavicle -2.70347e-014 2.22639e-014
rhumerus 9.94459 63.489 -51.0853
rradius 74.2238
rwrist -39.879
rhand -5.58615 -15.557
rfingers 7.12502
rthumb 20.2302 -44.5236
lclavicle -2.70347e-014 2.22639e-014
lhumerus 21.0602 -66.9908 73.2121
lradius 29.5912
lwrist 1.64018
lhand -14.6333 44.5069
lfingers 7.12502
lthumb 11.5184 74.1704
rfemur -7.35722 -0.91448 21.0633
rtibia 2.70347e-014
rfoot -4.26807 -16.0779
rtoes -4.723
lfemur -30.8654 -17.355 -2.00994
ltibia 26.284
lfoot -10.9167 9.87211
ltoes -40.0742
499
root -8.49946 17.7764 -5.1625 -144.424 72.6335 -159.033
lowerback 8.70356 2.19548 -7.62593
upperback 4.45729 2.94908 -9.25619
thorax -0.0459815 1.74791 -5.69373
lowerneck -18.9598 0.46214 0.716331
upperneck 43.5314 3.02891 1.74703
head 20.3497 2.22833 1.686
rclavicle -2.54444e-014 5.40694e-014
rhumerus 9.59667 63.7022 -51.3399
rradius 74.0885
rwrist -39.5541
rhand -5.97575 -15.5566
rfingers 7.12502
rthumb 19.8557 -44.5624
lclavicle -2.54444e-014 5.40694e-014
lhumerus 20.9158 -67.391 73.3067
lradius 29.7007
lwrist 1.86501
lhand -14.7045 44.6416
lfingers 7.12502
lthumb 11.4498 74.3089
rfemur -7.3511 -1.04968 21.1794
rtibia 1.43125e-014
rfoot -4.31865 -16.0709
rtoes -4.82149
lfemur -31.0081 -17.215 -1.94928
ltibia 26.3725
lfoot -10.9446 9.60789
ltoes -40.1354
500
root -8.50134 17.7761 -5.16276 -144.337 72.4138 -158.959
lowerback 8.80788 2.16737 -7.51106
upperback 4.44267 2.89654 -9.18484
thorax -0.122015 1.72038 -5.68205
lowerneck -18.732 0.481239 0.766934
upperneck 43.4773 3.07599 1.69177
head 20.2464 2.25218 1.65096
rclavicle -4.29375e-014 1.27222e-014
rhumerus 9.95812 64.0644 -50.839
rradius 74.069
rwrist -40.0612
rhand -6.36861 -15.621
rfingers 7.12502
rthumb 19.478 -44.6654
lclavicle -4.29375e-014 1.27222e-014
lhumerus 20.8288 -67.4407 73.4395
lradius 29.8016
lwrist 2.17783
lhand -14.8655 44.7858
lfingers 7.12502
lthumb 11.2945 74.4617
rfemur -7.33365 -1.21552 21.3259
rtibia -2.38542e-014
rfoot -4.4192 -16.0409
rtoes -4.50453
lfemur -31.1492 -17.0796 -1.8619
ltibia 26.4721
lfoot -10.9529 9.32993
ltoes -40.2442
501
root -8.50375 17.7724 -5.16233 -144.301 72.1362 -158.943
lowerback 8.91173 2.15373 -7.33456
upperback 4.51828 2.88803 -9.14669
thorax -0.0953952 1.71835 -5.74207
lowerneck -18.7608 0.438786 0.827753
upperneck 43.4278 2.97642 1.67401
head 20.2243 2.22056 1.60737
rclavicle 1.08139e-013 -5.08889e-014
rhumerus 10.2816 64.1418 -50.3916
rradius 74.0116
rwrist -39.8322
rhand -6.35172 -15.3325
rfingers 7.12502
rthumb 19.4942 -44.3753
lclavicle 1.08139e-013 -5.08889e-014
lhumerus 20.7796 -67.2543 73.7052
lradius 29.8002
lwrist 2.16006
lhand -14.985 44.9243
lfingers 7.12502
lthumb 11.1792 74.6065
rfemur -7.33655 -1.43998 21.4833
rtibia 4.77083e-015
rfoot -4.55086 -16.0239
rtoes -3.59905
lfemur -31.3324 -16.9954 -1.73831
ltibia 26.5727
lfoot -10.9484 9.04685
ltoes -40.4567
502
root -8.50596 17.7686 -5.16257 -144.628 71.7066 -159.173
lowerback 9.19232 2.10921 -7.05388
upperback 4.64635 2.83604 -9.12297
thorax -0.107796 1.69991 -5.88074
lowerneck -18.7624 0.369229 0.843068
upperneck 43.3745 2.82178 1.72925
head 20.1891 2.17165 1.5961
rclavicle 7.95139e-015 -1.27222e-014
rhumerus 10.3822 64.1398 -50.1444
rradius 73.9034
rwrist -38.5878
rhand -6.14434 -14.8442
rfingers 7.12502
rthumb 19.6936 -43.8666
lclavicle 7.95139e-015 -1.27222e-014
lhumerus 19.6987 -66.3628 75.2547
lradius 29.5564
lwrist 1.1447
lhand -14.8774 44.9211
lfingers 7.12502
lthumb 11.2829 74.5976
rfemur -7.139 -1.83704 21.6578
rtibia 3.18055e-015
rfoot -4.7541 -16.0219
rtoes -2.79523
lfemur -31.4813 -17.1853 -1.59712
ltibia 26.7104
lfoot -10.9907 8.82107
ltoes -40.6674
503
root -8.50594 17.7686 -5.16245 -144.892 71.2992 -159.448
lowerback 9.31156 2.04529 -6.82887
upperback 4.74782 2.77067 -9.10086
thorax -0.062521 1.67238 -5.98037
lowerneck -18.6824 0.32779 0.816629
upperneck 43.3072 2.7026 1.85581
head 20.1172 2.14076 1.63321
rclavicle -2.22639e-014 2.22639e-014
rhumerus 10.468 64.1638 -49.9345
rradius 73.7989
rwrist -37.2945
rhand -6.22942 -14.469
rfingers 7.12502
rthumb 19.6118 -43.4998
lclavicle -2.22639e-014 2.22639e-014
lhumerus 19.9848 -66.4713 75.0822
lradius 29.6982
lwrist 1.23057
lhand -14.8422 45.2842
lfingers 7.12502
lthumb 11.317 74.9589
rfemur -7.05912 -2.22165 21.8151
rtibia 2.70347e-014
rfoot -4.91312 -16.0157
rtoes -2.47042
lfemur -31.7756 -17.2767 -1.46895
ltibia 26.9606
lfoot -11.1279 8.53713
ltoes -40.4747
504
root -8.50586 17.7611 -5.16303 -145.068 70.9669 -159.702
lowerback 9.35133 1.98113 -6.68196
upperback 4.81366 2.70255 -9.07955
thorax -0.014577 1.64121 -6.03347
lowerneck -18.6172 0.288716 0.79013
upperneck 43.2928 2.59885 1.98145
head 20.086 2.11626 1.67651
rclavicle 9.38264e-014 1.33583e-013
rhumerus 10.5901 64.2046 -49.7108
rradius 73.7119
rwrist -36.4133
rhand -6.65931 -14.1215
rfingers 7.12502
rthumb 19.1985 -43.1939
lclavicle 9.38264e-014 1.33583e-013
lhumerus 20.3706 -66.6579 74.7486
lradius 29.8604
lwrist 1.44504
lhand -14.9305 45.6556
lfingers 7.12502
lthumb 11.2317 75.3349
rfemur -7.16752 -2.54354 21.922
rtibia 1.27222e-014
rfoot -4.77586 -16.0368
rtoes -3.51825
lfemur -32.0521 -17.2971 -1.37036
ltibia 27.0808
lfoot -11.211 8.30985
ltoes -40.3134
505
root -8.50467 17.7399 -5.16314 -145.158 70.6653 -159.895
lowerback 9.39943 1.90551 -6.56067
upperback 4.84664 2.60991 -9.05714
thorax -0.00877507 1.59679 -6.0701
lowerneck -18.6202 0.280644 0.825905
upperneck 43.3583 2.56664 2.03508
head 20.1314 2.11966 1.69419
rclavicle 7.4743e-014 -9.54166e-015
rhumerus 10.8013 64.351 -49.4182
rradius 73.6409
rwrist -35.6588
rhand -7.33094 -13.704
rfingers 7.12502
rthumb 18.5525 -42.8393
lclavicle 7.4743e-014 -9.54166e-015
lhumerus 20.912 -66.9347 74.1772
lradius 30.0247
lwrist 1.84647
lhand -15.1166 45.898
lfingers 7.12502
lthumb 11.0523 75.587
rfemur -7.4875 -2.83114 22.0212
rtibia -2.70347e-014
rfoot -4.06273 -16.1229
rtoes -7.42351
lfemur -32.3447 -17.39 -1.21639
ltibia 27.1766
lfoot -11.2896 8.1879
ltoes -40.3549
506
root -8.50193 17.7572 -5.16392 -145.275 70.3493 -160.092
lowerback 9.49664 1.82857 -6.44301
upperback 4.85642 2.50564 -9.03595
thorax -0.0556088 1.54667 -6.10813
lowerneck -18.5833 0.241182 0.852308
upperneck 43.4524 2.50283 2.07816
head 20.1852 2.10977 1.70243
rclavicle 3.18055e-014 -4.77083e-014
rhumerus 10.8895 64.6078 -49.1969
rradius 73.5997
rwrist -34.8404
rhand -8.02333 -13.144
rfingers 7.12502
rthumb 17.8864 -42.3415
lclavicle 3.18055e-014 -4.77083e-014
lhumerus 20.9386 -66.8996 74.2201
lradius 30.023
lwrist 1.77971
lhand -15.1728 45.8938
lfingers 7.12502
lthumb 10.9981 75.5857
rfemur -7.27076 -3.12591 22.1446
rtibia -1.43125e-014
rfoot -5.03529 -15.9721
rtoes -2.77188
lfemur -32.5544 -17.5532 -1.0618
ltibia 27.1991
lfoot -11.3043 8.08159
ltoes -40.3369
507
root -8.50144 17.7596 -5.16666 -145.53 70.053 -160.386
lowerback 9.66082 1.78328 -6.34517
upperback 4.8476 2.43258 -9.02478
thorax -0.15725 1.51283 -6.15281
lowerneck -18.4385 0.119613 0.802254
upperneck 43.5308 2.32828 2.15465
head 20.1962 2.05207 1.71436
rclavicle 4.77083e-015 8.26944e-014
rhumerus 10.6403 64.9372 -49.1431
rradius 73.6551
rwrist -34.1194
rhand -8.70124 -12.5894
rfingers 7.12502
rthumb 17.234 -41.8452
lclavicle 4.77083e-015 8.26944e-014
lhumerus 20.596 -66.7374 74.7426
lradius 29.9262
lwrist 1.37346
lhand -15.1297 45.8519
lfingers 7.12502
lthumb 11.0397 75.5416
rfemur -7.20369 -3.43427 22.189
rtibia 3.33958e-014
rfoot -5.45595 -15.8879
rtoes -0.757935
lfemur -32.7266 -17.7438 -0.976199
ltibia 27.1968
lfoot -11.2491 8.00892
ltoes -40.3
